<svg width="32" height="31" viewBox="0 0 32 31" fill="none" xmlns="http://www.w3.org/2000/svg">
<g opacity="0.3">
<path d="M8.66675 15.5L14.0001 15.5" stroke="#D11242" stroke-width="2" stroke-linecap="round" stroke-linejoin="round"/>
<path fill-rule="evenodd" clip-rule="evenodd" d="M18.6375 11.0517L17.9192 10.3559L19.3108 8.91938L20.029 9.61517L25.3624 14.7818L26.1038 15.5001L25.3624 16.2183L20.029 21.385L19.3108 22.0808L17.9192 20.6443L18.6375 19.9485L22.1971 16.5001L17.3333 16.5001L17.3333 23.8334C17.3333 24.938 18.2287 25.8334 19.3333 25.8334L25.9999 25.8334C27.1045 25.8334 27.9999 24.938 27.9999 23.8334L27.9999 7.16675C27.9999 6.06218 27.1045 5.16675 25.9999 5.16675L19.3333 5.16675C18.2287 5.16675 17.3333 6.06218 17.3333 7.16675L17.3333 14.5001L22.1971 14.5001L18.6375 11.0517Z" fill="#D11242"/>
</g>
</svg>
