<svg width="31" height="31" viewBox="0 0 31 31" fill="none" xmlns="http://www.w3.org/2000/svg">
<g opacity="0.3">
<path d="M26.1562 13.9682C25.5455 13.7 24.8857 13.5619 24.2188 13.5625H6.78125C6.11433 13.5618 5.45455 13.6998 4.84375 13.9676C3.98047 14.3451 3.24588 14.9659 2.72975 15.7542C2.21363 16.5425 1.93832 17.464 1.9375 18.4062V25.1875C1.9375 25.4444 2.03956 25.6908 2.22124 25.8725C2.40292 26.0542 2.64932 26.1562 2.90625 26.1562C3.16318 26.1562 3.40958 26.0542 3.59126 25.8725C3.77294 25.6908 3.875 25.4444 3.875 25.1875V24.7031C3.87657 24.5751 3.92811 24.4529 4.01861 24.3624C4.10911 24.2719 4.2314 24.2203 4.35938 24.2188H26.6406C26.7686 24.2203 26.8909 24.2719 26.9814 24.3624C27.0719 24.4529 27.1234 24.5751 27.125 24.7031V25.1875C27.125 25.4444 27.2271 25.6908 27.4087 25.8725C27.5904 26.0542 27.8368 26.1562 28.0938 26.1562C28.3507 26.1562 28.5971 26.0542 28.7788 25.8725C28.9604 25.6908 29.0625 25.4444 29.0625 25.1875V18.4062C29.0616 17.4641 28.7862 16.5427 28.2701 15.7545C27.754 14.9664 27.0194 14.3456 26.1562 13.9682ZM22.7656 4.84375H8.23438C7.33513 4.84375 6.47271 5.20098 5.83684 5.83684C5.20098 6.47271 4.84375 7.33513 4.84375 8.23438V12.5938C4.84378 12.6313 4.85253 12.6683 4.86931 12.7019C4.88609 12.7354 4.91044 12.7646 4.94044 12.7872C4.97045 12.8097 5.00528 12.825 5.04219 12.8318C5.0791 12.8386 5.11709 12.8367 5.15314 12.8262C5.682 12.6716 6.23024 12.5933 6.78125 12.5938H7.03736C7.09714 12.5941 7.15495 12.5724 7.19966 12.5327C7.24437 12.493 7.27283 12.4382 7.27955 12.3788C7.33239 11.9054 7.55774 11.4681 7.91257 11.1504C8.26739 10.8326 8.72682 10.6567 9.20312 10.6562H12.5938C13.0704 10.6563 13.5302 10.832 13.8854 11.1498C14.2407 11.4676 14.4663 11.9051 14.5191 12.3788C14.5259 12.4382 14.5543 12.493 14.599 12.5327C14.6437 12.5724 14.7015 12.5941 14.7613 12.5938H16.2423C16.3021 12.5941 16.3599 12.5724 16.4046 12.5327C16.4493 12.493 16.4778 12.4382 16.4845 12.3788C16.5373 11.9058 16.7624 11.4687 17.1168 11.151C17.4713 10.8333 17.9303 10.6572 18.4062 10.6562H21.7969C22.2735 10.6563 22.7334 10.832 23.0886 11.1498C23.4438 11.4676 23.6694 11.9051 23.7223 12.3788C23.729 12.4382 23.7574 12.493 23.8022 12.5327C23.8469 12.5724 23.9047 12.5941 23.9645 12.5938H24.2188C24.7698 12.5935 25.318 12.672 25.8469 12.8269C25.883 12.8373 25.921 12.8392 25.958 12.8324C25.9949 12.8255 26.0298 12.8102 26.0598 12.7876C26.0898 12.765 26.1142 12.7357 26.1309 12.7021C26.1476 12.6684 26.1563 12.6313 26.1562 12.5938V8.23438C26.1562 7.33513 25.799 6.47271 25.1632 5.83684C24.5273 5.20098 23.6649 4.84375 22.7656 4.84375Z" fill="#D11242"/>
</g>
</svg>
