<svg width="19" height="14" viewBox="0 0 19 14" fill="none" xmlns="http://www.w3.org/2000/svg">
<path d="M6.3758 10.8442L2.76122 7.22964C2.56645 7.03487 2.30229 6.92546 2.02684 6.92546C1.7514 6.92546 1.48724 7.03487 1.29247 7.22964C1.0977 7.42441 0.988281 7.68857 0.988281 7.96402C0.988281 8.1004 1.01514 8.23545 1.06734 8.36146C1.11953 8.48746 1.19603 8.60195 1.29247 8.69839L5.64664 13.0526C6.05289 13.4588 6.70914 13.4588 7.11539 13.0526L18.1362 2.03173C18.331 1.83696 18.4404 1.5728 18.4404 1.29735C18.4404 1.02191 18.331 0.757746 18.1362 0.562977C17.9415 0.368209 17.6773 0.258789 17.4018 0.258789C17.1264 0.258789 16.8622 0.368209 16.6675 0.562977L6.3758 10.8442Z" fill="white"/>
</svg>
