<svg width="25" height="25" viewBox="0 0 25 25" fill="none" xmlns="http://www.w3.org/2000/svg">
<path d="M12.5 24C18.8514 24 24 18.8514 24 12.5C24 6.14855 18.8514 1 12.5 1C6.14855 1 1 6.14855 1 12.5C1 18.8514 6.14855 24 12.5 24Z" stroke="white" stroke-width="1.5"/>
<path d="M1 10.6828C2.73382 9.86435 4.01607 9.75031 4.84675 10.3406C6.09278 11.2261 6.2486 14.8366 9.08335 13.1116C11.9181 11.3866 7.86953 10.6828 8.74813 8.18382C9.62673 5.68429 12.5046 7.62607 12.7904 4.88849C12.9817 3.06344 10.7986 2.36501 6.24113 2.79319" stroke="white" stroke-width="1.5"/>
<path d="M19.3977 3.30005C16.1122 6.16853 14.9647 7.90062 15.9552 8.49632C17.441 9.39045 18.0712 8.13177 19.8847 8.49632C21.6983 8.86087 21.305 11.319 20.3516 11.319C19.3983 11.319 14.4585 10.6899 14.7074 13.5724C14.9564 16.4549 17.9274 16.8815 17.9274 18.4921C17.9274 19.5655 17.27 21.2086 15.9552 23.4216M2.20752 17.6325C2.59947 17.46 2.99357 17.2925 3.38972 17.1299C5.60155 16.2368 7.24299 16.0261 8.31402 16.498C10.2069 17.3335 9.47897 19.0205 10.0724 19.6421C10.6646 20.2637 12.1458 20.0831 12.1458 21.2653C12.1458 22.0539 11.8809 22.9443 11.3512 23.9368" stroke="white" stroke-width="1.5" stroke-linecap="round"/>
</svg>
