<svg width="27" height="27" viewBox="0 0 27 27" fill="none" xmlns="http://www.w3.org/2000/svg">
<path d="M1.35291 8.63966L7.81151 11.534C8.10414 11.6594 8.42343 11.7098 8.74046 11.6807C9.05749 11.6515 9.36224 11.5438 9.62713 11.3672C9.65396 11.3499 9.67955 11.3307 9.7037 11.3098L13.0793 8.43869C13.1143 8.41959 13.1533 8.40891 13.1932 8.40748C13.233 8.40606 13.2727 8.41393 13.309 8.43048C15.4787 9.47775 17.7264 11.7117 18.7777 13.8514C18.7952 13.8871 18.8043 13.9264 18.8043 13.9662C18.8043 14.006 18.7952 14.0453 18.7777 14.0811L15.8971 17.499C15.8764 17.5243 15.8572 17.5508 15.8396 17.5783C15.6655 17.8442 15.5603 18.1493 15.5335 18.4661C15.5068 18.7828 15.5594 19.1012 15.6865 19.3926L18.5603 25.8402C18.7235 26.2209 19.0058 26.5383 19.3647 26.7449C19.7236 26.9514 20.1399 27.036 20.551 26.986C22.3376 26.7511 23.9775 25.8737 25.1644 24.5178C26.3512 23.1618 27.0037 21.4202 27 19.6182C27 8.9131 18.291 0.204116 7.58592 0.204115C5.78403 0.200661 4.0425 0.853281 2.68663 2.04007C1.33077 3.22686 0.453306 4.86665 0.218149 6.65314C0.168173 7.0623 0.251623 7.47667 0.456079 7.83459C0.660537 8.19252 0.97508 8.47487 1.35291 8.63966ZM7.58592 1.84474C17.3859 1.84474 25.3594 9.81818 25.3594 19.6182C25.3639 21.021 24.8576 22.3775 23.935 23.4343C23.0123 24.491 21.7365 25.1757 20.3459 25.3604L20.3144 25.3604C20.2593 25.3593 20.2058 25.3417 20.161 25.3097C20.1161 25.2778 20.0819 25.233 20.0629 25.1813L17.1781 18.7404C17.1617 18.7046 17.1531 18.6657 17.1531 18.6263C17.1531 18.5869 17.1617 18.5479 17.1781 18.5121L20.0642 15.086C20.0857 15.0614 20.1053 15.0354 20.123 15.008C20.3036 14.7323 20.41 14.4147 20.4318 14.0858C20.4536 13.7569 20.3901 13.428 20.2474 13.1309C19.0348 10.6481 16.5328 8.16525 14.0226 6.95255C13.7238 6.81071 13.3933 6.74875 13.0633 6.77271C12.7334 6.79667 12.4153 6.90574 12.14 7.08927C12.114 7.10704 12.0881 7.12619 12.0635 7.14669L8.68924 10.0178C8.65592 10.0357 8.61912 10.0462 8.58136 10.0485C8.54361 10.0509 8.50579 10.0451 8.47049 10.0315L2.01053 7.13712C1.95777 7.11465 1.9134 7.07616 1.88371 7.02709C1.85402 6.97802 1.84052 6.92085 1.8451 6.86369C2.02882 5.47242 2.71285 4.19565 3.76937 3.27199C4.82588 2.34832 6.18258 1.84097 7.58592 1.84474Z" fill="white"/>
</svg>
