<svg width="20" height="21" viewBox="0 0 20 21" fill="none" xmlns="http://www.w3.org/2000/svg">
<path d="M9.9987 1.72021C6.33203 1.72021 3.33203 4.72021 3.33203 8.38688C3.33203 12.8869 9.16536 17.9702 9.41536 18.2202C9.58203 18.3035 9.83203 18.3869 9.9987 18.3869C10.1654 18.3869 10.4154 18.3035 10.582 18.2202C10.832 17.9702 16.6654 12.8869 16.6654 8.38688C16.6654 4.72021 13.6654 1.72021 9.9987 1.72021ZM9.9987 16.4702C8.2487 14.8035 4.9987 11.2202 4.9987 8.38688C4.9987 5.63688 7.2487 3.38688 9.9987 3.38688C12.7487 3.38688 14.9987 5.63688 14.9987 8.38688C14.9987 11.1369 11.7487 14.8035 9.9987 16.4702ZM9.9987 5.05355C8.16536 5.05355 6.66536 6.55355 6.66536 8.38688C6.66536 10.2202 8.16536 11.7202 9.9987 11.7202C11.832 11.7202 13.332 10.2202 13.332 8.38688C13.332 6.55355 11.832 5.05355 9.9987 5.05355ZM9.9987 10.0535C9.08203 10.0535 8.33203 9.30355 8.33203 8.38688C8.33203 7.47021 9.08203 6.72021 9.9987 6.72021C10.9154 6.72021 11.6654 7.47021 11.6654 8.38688C11.6654 9.30355 10.9154 10.0535 9.9987 10.0535Z" fill="white"/>
</svg>
