<svg width="20" height="21" viewBox="0 0 20 21" fill="none" xmlns="http://www.w3.org/2000/svg">
<path d="M3.33464 16.7176C2.8763 16.7176 2.48408 16.5546 2.15797 16.2284C1.83186 15.9023 1.66852 15.5098 1.66797 15.0509V5.05094C1.66797 4.59261 1.8313 4.20039 2.15797 3.87428C2.48464 3.54817 2.87686 3.38483 3.33464 3.38428H16.668C17.1263 3.38428 17.5188 3.54761 17.8455 3.87428C18.1721 4.20094 18.3352 4.59317 18.3346 5.05094V15.0509C18.3346 15.5093 18.1716 15.9018 17.8455 16.2284C17.5194 16.5551 17.1269 16.7182 16.668 16.7176H3.33464ZM10.0013 10.8843L3.33464 6.71761V15.0509H16.668V6.71761L10.0013 10.8843ZM10.0013 9.21761L16.668 5.05094H3.33464L10.0013 9.21761ZM3.33464 6.71761V5.05094V15.0509V6.71761Z" fill="white"/>
</svg>
