<svg width="20" height="21" viewBox="0 0 20 21" fill="none" xmlns="http://www.w3.org/2000/svg">
<path d="M17.5 12.1457L13.8211 10.4964L13.807 10.4902C13.5679 10.3871 13.3067 10.3456 13.0474 10.3695C12.7881 10.3934 12.5389 10.4819 12.3227 10.6269C12.2923 10.6472 12.2631 10.6691 12.2352 10.6925L10.4922 12.1769C9.47657 11.6261 8.42735 10.5855 7.87579 9.58237L9.36485 7.81206C9.38875 7.78346 9.41093 7.75346 9.43126 7.72222C9.57249 7.50671 9.65824 7.25962 9.68087 7.00296C9.70349 6.74629 9.6623 6.48801 9.56094 6.25112C9.55853 6.24659 9.55644 6.24189 9.55469 6.23706L7.90626 2.5519C7.77094 2.24372 7.54001 1.98728 7.24763 1.82055C6.95525 1.65382 6.61696 1.58564 6.28282 1.62612C5.14873 1.7751 4.10765 2.3318 3.35402 3.19226C2.60039 4.05271 2.18573 5.15808 2.18751 6.3019C2.18751 12.6777 7.37422 17.8644 13.75 17.8644C14.8938 17.8662 15.9992 17.4515 16.8597 16.6979C17.7201 15.9443 18.2768 14.9032 18.4258 13.7691C18.4663 13.435 18.3981 13.0967 18.2314 12.8043C18.0646 12.5119 17.8082 12.281 17.5 12.1457ZM13.75 15.9894C11.1817 15.9863 8.71942 14.9647 6.90333 13.1486C5.08725 11.3325 4.06561 8.87024 4.06251 6.3019C4.06072 5.65463 4.28046 5.02624 4.68522 4.52114C5.08999 4.01603 5.6554 3.66464 6.28751 3.52534L7.75782 6.80659L6.26094 8.5894C6.23675 8.61824 6.21431 8.6485 6.19376 8.68003C6.04622 8.90546 5.95947 9.16521 5.94195 9.43406C5.92443 9.70291 5.97672 9.97173 6.09376 10.2144C6.82969 11.7207 8.3461 13.2269 9.86797 13.9644C10.1123 14.0802 10.3824 14.1307 10.6521 14.1108C10.9217 14.091 11.1816 14.0015 11.4063 13.8511C11.4364 13.8307 11.4654 13.8085 11.493 13.7847L13.2453 12.2949L16.5266 13.7644C16.3873 14.3965 16.0359 14.9619 15.5308 15.3667C15.0257 15.7714 14.3973 15.9912 13.75 15.9894Z" fill="white"/>
</svg>
