<svg width="69" height="69" viewBox="0 0 69 69" fill="none" xmlns="http://www.w3.org/2000/svg">
<path d="M4.3125 58.9369V24.2558C3.45 23.8379 2.75521 23.2764 2.22812 22.571C1.70104 21.8657 1.4375 21.0501 1.4375 20.1244C1.4375 19.2811 1.81029 18.2988 2.55587 17.1775C3.30146 16.0563 4.36617 14.8459 5.75 13.5464C7.13575 14.8478 8.20142 16.0582 8.947 17.1775C9.69258 18.2968 10.0644 19.2791 10.0625 20.1244C10.0625 21.0521 9.79896 21.8676 9.27187 22.571C8.74479 23.2764 8.05 23.8379 7.1875 24.2558V38.8119H15.8125V31.6244C15.8125 30.5012 16.1862 29.5266 16.9337 28.7005C17.6812 27.8744 18.6453 27.4221 19.826 27.3435H21.8184C20.8102 26.4197 20.0368 25.377 19.4983 24.2155C18.9597 23.054 18.6894 21.7861 18.6875 20.4119C18.6875 18.7444 19.0881 17.2015 19.8892 15.7831C20.6885 14.3686 21.7618 13.2023 23.1093 12.2843L34.5 4.58789L45.8908 12.2843C47.2382 13.2023 48.3115 14.3696 49.1108 15.786C49.9119 17.2043 50.3125 18.7463 50.3125 20.4119C50.3125 21.7861 50.0423 23.054 49.5018 24.2155C48.9613 25.377 48.1888 26.4206 47.1845 27.3464H49.174C50.3527 27.4231 51.3168 27.8735 52.0663 28.6976C52.8138 29.5256 53.1875 30.5012 53.1875 31.6244V38.8119H61.8125V24.2558C60.95 23.8379 60.2552 23.2764 59.7281 22.571C59.201 21.8676 58.9375 21.0521 58.9375 20.1244C58.9375 19.2811 59.3103 18.2988 60.0559 17.1775C60.8015 16.0563 61.8662 14.8459 63.25 13.5464C64.6357 14.8478 65.7014 16.0582 66.447 17.1775C67.1926 18.2968 67.5644 19.2791 67.5625 20.1244C67.5625 21.0521 67.299 21.8676 66.7719 22.571C66.2448 23.2764 65.55 23.8379 64.6875 24.2558V58.9369H38.8125V48.8744C38.8125 47.6918 38.3899 46.6769 37.5446 45.8298C36.6975 44.9845 35.6826 44.5619 34.5 44.5619C33.3174 44.5619 32.3025 44.9845 31.4554 45.8298C30.6082 46.675 30.1856 47.6899 30.1875 48.8744V58.9369H4.3125ZM28.4625 27.3119H40.5375C42.4388 27.3119 44.0642 26.6372 45.4135 25.2879C46.7628 23.9386 47.4375 22.3161 47.4375 20.4205C47.4375 19.236 47.1663 18.1282 46.6239 17.097C46.0815 16.0658 45.3167 15.2321 44.3296 14.5958L34.5 8.06089L24.6675 14.5958C23.6823 15.234 22.9185 16.0678 22.3761 17.097C21.8337 18.1263 21.5625 19.2341 21.5625 20.4205C21.5625 22.318 22.2372 23.9405 23.5865 25.2879C24.9358 26.6353 26.5612 27.31 28.4625 27.3119ZM7.1875 56.0619H27.3125V48.8744C27.3125 46.8772 28.0111 45.181 29.4084 43.7856C30.8037 42.3865 32.499 41.6869 34.4943 41.6869C36.4895 41.6869 38.1867 42.3865 39.5859 43.7856C40.985 45.1848 41.6856 46.8811 41.6875 48.8744V56.0619H61.8125V41.6869H50.3125V31.6244C50.3125 31.2181 50.1745 30.8769 49.8985 30.6009C49.6225 30.3249 49.2813 30.1869 48.875 30.1869H20.125C19.7187 30.1869 19.3775 30.3249 19.1015 30.6009C18.8255 30.8769 18.6875 31.2181 18.6875 31.6244V41.6869H7.1875V56.0619Z" fill="#D11242"/>
</svg>
