<svg width="70" height="69" viewBox="0 0 70 69" fill="none" xmlns="http://www.w3.org/2000/svg">
<path d="M51.675 55.2L46.5 31.625L56.5625 21.5625C60.875 17.25 62.3125 11.5 60.875 8.625C58 7.1875 52.25 8.625 47.9375 12.9375L37.875 23L14.3 17.825C12.8625 17.5375 11.7125 18.1125 11.1375 19.2625L10.275 20.7C9.7 22.1375 9.9875 23.575 11.1375 24.4375L26.375 34.5L20.625 43.125H12L9.125 46L17.75 51.75L23.5 60.375L26.375 57.5V48.875L35 43.125L45.0625 58.3625C45.925 59.5125 47.3625 59.8 48.8 59.225L50.2375 58.65C51.3875 57.7875 51.9625 56.6375 51.675 55.2Z" stroke="#D11242" stroke-width="4" stroke-linecap="round" stroke-linejoin="round"/>
</svg>
