<svg width="70" height="69" viewBox="0 0 70 69" fill="none" xmlns="http://www.w3.org/2000/svg">
<path d="M14.875 49.2099V23.0014C14.875 19.4958 16.6537 17.2092 20.211 16.1417C23.7683 15.0741 28.1824 14.4857 33.4532 14.3764L35.6095 10.0639H20.8464V7.51953H49.1536V10.0639H38.7059L36.5496 14.3764C41.9182 14.4837 46.3563 15.0683 49.8638 16.1302C53.3713 17.1977 55.125 19.4882 55.125 23.0014V49.2099C55.125 51.5195 54.32 53.4793 52.71 55.0893C51.1019 56.6974 49.1431 57.5014 46.8335 57.5014L51.146 61.8139V63.2514H48.7109L42.9609 57.5014H27.0391L21.2891 63.2514H18.8569V61.8139L23.1694 57.5014C20.8579 57.5014 18.8981 56.6964 17.29 55.0864C15.68 53.4802 14.875 51.5224 14.875 49.2128M46.8335 40.2514H17.75H52.25H46.8335ZM35 50.6474C35.9028 50.6474 36.6627 50.3379 37.2799 49.7188C37.899 49.1016 38.2085 48.3417 38.2085 47.4389C38.2085 46.5362 37.899 45.7762 37.2799 45.159C36.6627 44.5399 35.9028 44.2304 35 44.2304C34.0972 44.2304 33.3373 44.5399 32.7201 45.159C32.101 45.7762 31.7915 46.5362 31.7915 47.4389C31.7915 48.3417 32.101 49.1016 32.7201 49.7188C33.3373 50.3379 34.0972 50.6474 35 50.6474ZM34.9655 21.676H52.0171H18.0145H34.9655ZM17.75 37.3764H52.25V24.551H17.75V37.3764ZM23.1694 54.6264H46.8306C48.3352 54.6264 49.6146 54.0993 50.6688 53.0452C51.7229 51.991 52.25 50.7116 52.25 49.207V40.2514H17.75V49.2099C17.75 50.7126 18.2771 51.991 19.3313 53.0452C20.3854 54.0993 21.6648 54.6264 23.1694 54.6264ZM34.9684 17.2514C29.0267 17.2514 24.8321 17.6357 22.3845 18.4043C19.9369 19.1729 18.4803 20.2634 18.0145 21.676H52.0171C51.5533 20.2309 50.0899 19.1317 47.6212 18.3784C45.1526 17.6252 40.935 17.2495 34.9684 17.2514Z" fill="#D11242"/>
</svg>
