<svg width="70" height="69" viewBox="0 0 70 69" fill="none" xmlns="http://www.w3.org/2000/svg">
<path d="M6.25 61.7952C9.97312 62.0712 13.104 58.9375 15.8324 58.9375C18.5608 58.9375 22.9969 61.8269 25.4176 61.7952C28.3214 61.8211 31.7225 58.9375 35 58.9375C38.2775 58.9375 41.6786 61.8211 44.5824 61.7952C48.3055 62.0712 51.4364 58.9375 54.1676 58.9375C56.8989 58.9375 61.3292 61.8269 63.75 61.7952M17.75 58.9375C13.6733 53.8602 10.8011 47.3599 9.57638 43.9156C9.18825 42.8231 8.99562 42.2769 9.21987 41.7536C9.447 41.2332 9.99612 40.9889 11.103 40.5001L32.6368 30.9609C33.7983 30.4434 34.3819 30.1875 35 30.1875C35.6181 30.1875 36.2017 30.4463 37.3661 30.9638L58.897 40.5001C60.001 40.9889 60.553 41.2332 60.7801 41.7536C61.0044 42.2769 60.8089 42.8231 60.4236 43.9156C59.1989 47.3599 56.3267 53.8602 52.25 58.9375" stroke="#D11242" stroke-width="3" stroke-linecap="round" stroke-linejoin="round"/>
<path d="M17.75 37.375L18.371 29.3049C18.7591 24.2679 18.9518 21.7494 20.6049 20.2199C22.258 18.6875 24.7851 18.6875 29.8365 18.6875H40.1635C45.2149 18.6875 47.742 18.6875 49.3923 20.2199C51.0483 21.7494 51.2409 24.2679 51.629 29.3049L52.25 37.375" stroke="#D11242" stroke-width="3" stroke-linecap="round" stroke-linejoin="round"/>
<path d="M24.9375 18.6875L25.432 14.743C25.8805 11.1464 26.1047 9.34662 27.3295 8.26562C28.5514 7.1875 30.3626 7.1875 33.988 7.1875H36.012C39.6345 7.1875 41.4486 7.1875 42.6705 8.26562C43.8953 9.34662 44.1195 11.1464 44.568 14.743L45.0625 18.6875" stroke="#D11242" stroke-width="3" stroke-linecap="round" stroke-linejoin="round"/>
</svg>
