<svg width="25" height="20" viewBox="0 0 25 20" fill="none" xmlns="http://www.w3.org/2000/svg">
<path d="M24.6338 15.2529C24.8041 14.9786 24.9999 14.4872 24.9999 14.1054V12.5826C24.9999 11.9626 24.6982 11.4118 24.2339 11.0692C24.6878 10.7336 25 10.1137 25 9.55371C25 8.93692 24.7016 8.38853 24.2416 8.04522V1.96582C24.2416 0.929248 23.3983 0.0859375 22.3618 0.0859375H13.2979C13.0956 0.0859375 12.9316 0.249902 12.9316 0.452148C12.9316 0.654395 13.0956 0.818359 13.2979 0.818359H22.3618C22.9945 0.818359 23.5093 1.33311 23.5093 1.96582V7.71318C23.269 7.66226 22.9748 7.66323 22.7249 7.67236V2.70112C22.7249 2.09531 22.232 1.60249 21.6262 1.60249H3.37378C2.76797 1.60249 2.27515 2.09531 2.27515 2.70112V7.67236C2.02515 7.66333 1.73115 7.66221 1.49072 7.71274V1.96582C1.49072 1.33311 2.00547 0.818359 2.63818 0.818359H11.7021C11.9044 0.818359 12.0684 0.654395 12.0684 0.452148C12.0684 0.249902 11.9044 0.0859375 11.7021 0.0859375H2.63818C1.60161 0.0859375 0.758301 0.929248 0.758301 1.96582V8.04404C0.308789 8.37988 0 8.99732 0 9.55371C0 10.1743 0.3021 10.7257 0.766895 11.0686C0.302148 11.4112 9.76563e-05 11.9623 9.76563e-05 12.5827V14.1055C9.76563e-05 14.5372 0.146387 14.9353 0.391943 15.253H0.366211C0.163965 15.253 0 15.4169 0 15.6192V17.1358C0 17.338 0.163965 17.502 0.366211 17.502H1.5168V18.6525C1.5168 18.8548 1.68076 19.0188 1.88301 19.0188H3.39971C3.60195 19.0188 3.76592 18.8548 3.76592 18.6525V17.502H6.77246C6.97471 17.502 7.13867 17.338 7.13867 17.1358C7.13867 16.9335 6.97471 16.7696 6.77246 16.7696H0.732422V15.9854H24.2676V16.7696H8.36865C8.16641 16.7696 8.00244 16.9335 8.00244 17.1358C8.00244 17.338 8.16641 17.502 8.36865 17.502H21.234V18.6525C21.234 18.8548 21.3979 19.0188 21.6002 19.0188H23.1169C23.3192 19.0188 23.4832 18.8548 23.4832 18.6525V17.502H24.6338C24.8361 17.502 25 17.338 25 17.1358V15.6192C25 15.4169 24.8361 15.2529 24.6338 15.2529ZM3.00757 2.70112C3.00757 2.49922 3.17183 2.33491 3.37378 2.33491H21.6262C21.8281 2.33491 21.9924 2.49922 21.9924 2.70112V7.67236H21.1442C21.1855 7.55693 21.208 7.43267 21.208 7.30322V5.73438C21.208 5.12856 20.7151 4.63574 20.1094 4.63574H14.749C14.1433 4.63574 13.6504 5.12856 13.6504 5.73438V7.30322C13.6504 7.43267 13.6729 7.55693 13.7142 7.67236H11.2856C11.327 7.55693 11.3495 7.43262 11.3495 7.30313V5.73452C11.3495 5.12871 10.8567 4.63589 10.2509 4.63589H4.89053C4.28472 4.63589 3.79189 5.12871 3.79189 5.73452V7.30313C3.79189 7.43262 3.8144 7.55693 3.85576 7.67236H3.00762L3.00757 2.70112ZM4.52432 7.30313V5.73452C4.52432 5.53257 4.68857 5.36831 4.89053 5.36831H10.2509C10.4528 5.36831 10.6171 5.53257 10.6171 5.73452V7.30313C10.6171 7.50508 10.4528 7.66934 10.2509 7.66934H4.89053C4.68857 7.66934 4.52432 7.50508 4.52432 7.30313ZM1.88135 8.40479H16.6313C16.8336 8.40479 16.9976 8.24082 16.9976 8.03857C16.9976 8.03809 16.9976 8.0376 16.9976 8.03711C16.9976 8.03662 16.9976 8.03613 16.9976 8.03564C16.9976 7.8334 16.8336 7.66943 16.6313 7.66943H14.749C14.5471 7.66943 14.3828 7.50518 14.3828 7.30322V5.73438C14.3828 5.53242 14.5471 5.36816 14.749 5.36816H20.1094C20.3113 5.36816 20.4756 5.53242 20.4756 5.73438V7.30322C20.4756 7.50518 20.3113 7.66943 20.1094 7.66943H18.2275C18.0252 7.66943 17.8613 7.8334 17.8613 8.03564V8.03711V8.03857C17.8613 8.24082 18.0252 8.40479 18.2275 8.40479H23.1187C23.7522 8.40479 24.2676 8.92022 24.2676 9.55371C24.2018 10.2539 23.8188 10.6369 23.1187 10.7026H1.88135C1.2478 10.7026 0.732422 10.1872 0.732422 9.55371C0.732422 9.24693 0.998047 8.40479 1.88135 8.40479ZM0.73252 12.5826C0.73252 11.9499 1.24727 11.4352 1.87998 11.4352H23.12C23.7527 11.4352 24.2675 11.9499 24.2675 12.5826V14.1054C24.2675 14.7381 23.7527 15.2529 23.12 15.2529H1.87998C1.24727 15.2529 0.73252 14.7381 0.73252 14.1054V12.5826ZM3.0335 18.2863H2.24922V17.5021H3.0335V18.2863ZM22.7508 18.2863H21.9665V17.5021H22.7508V18.2863Z" fill="black"/>
</svg>
