<svg width="25" height="26" viewBox="0 0 25 26" fill="none" xmlns="http://www.w3.org/2000/svg">
<path d="M9.50634 17.4688H23.1172C23.3194 17.4688 23.4834 17.3049 23.4834 17.1026V6.48538C23.4834 6.28309 23.3194 6.11917 23.1172 6.11917H3.39989C3.19764 6.11917 3.03368 6.28309 3.03368 6.48538V7.63592H1.883C1.68075 7.63592 1.51678 7.79983 1.51678 8.00213V9.51883C1.51678 9.72112 1.68075 9.88504 1.883 9.88504H3.03368V13.7028H1.883C1.68075 13.7028 1.51678 13.8667 1.51678 14.069V15.5857C1.51678 15.788 1.68075 15.9519 1.883 15.9519H3.03368V17.1026C3.03368 17.3049 3.19764 17.4688 3.39989 17.4688H7.91014C8.11239 17.4688 8.27636 17.3049 8.27636 17.1026C8.27636 16.9003 8.11239 16.7364 7.91014 16.7364H3.7661V15.9519H4.91644C5.11869 15.9519 5.28265 15.788 5.28265 15.5857V14.069C5.28265 13.8667 5.11869 13.7028 4.91644 13.7028H3.7661V9.88504H4.91644C5.11869 9.88504 5.28265 9.72112 5.28265 9.51883V8.00213C5.28265 7.79983 5.11869 7.63592 4.91644 7.63592H3.7661V6.85159H22.751V16.7364H9.50634C9.30409 16.7364 9.14012 16.9003 9.14012 17.1026C9.14012 17.3049 9.30409 17.4688 9.50634 17.4688ZM4.55023 15.2195H2.24921V14.4352H4.55023V15.2195ZM4.55023 9.15267H2.24921V8.36839H4.55023V9.15267Z" fill="black"/>
<path d="M7.94971 15.1934H9.4668C9.66905 15.1934 9.83301 15.0295 9.83301 14.8272V12.5448C10.2929 12.2011 10.5912 11.6525 10.5912 11.0356C10.5912 9.99736 9.74649 9.15268 8.70826 9.15268C7.67003 9.15268 6.82535 9.99736 6.82535 11.0356C6.82535 11.6526 7.12364 12.2012 7.58355 12.5448V14.8272C7.5835 15.0294 7.74747 15.1934 7.94971 15.1934ZM9.10059 14.461H8.31592V12.8774C8.5775 12.9322 8.83902 12.9322 9.10059 12.8774V14.461ZM8.70821 9.8851C9.34258 9.8851 9.8587 10.4012 9.8587 11.0356C9.8587 11.67 9.34258 12.1861 8.70821 12.1861C8.07383 12.1861 7.55772 11.67 7.55772 11.0356C7.55772 10.4012 8.07383 9.8851 8.70821 9.8851Z" fill="black"/>
<path d="M24.6338 4.60257H13.2979C13.0956 4.60257 12.9316 4.76649 12.9316 4.96878C12.9316 5.17108 13.0956 5.33499 13.2979 5.33499H24.2676V18.253H0.732422V5.33499H11.7021C11.9044 5.33499 12.0684 5.17108 12.0684 4.96878C12.0684 4.76649 11.9044 4.60257 11.7021 4.60257H0.366211C0.163965 4.60257 0 4.76649 0 4.96878V18.6192C0 18.8215 0.163965 18.9854 0.366211 18.9854H1.5168V20.1359C1.5168 20.3382 1.68076 20.5021 1.88301 20.5021H4.91646C5.1187 20.5021 5.28267 20.3382 5.28267 20.1359V18.9854H19.7173V20.1359C19.7173 20.3382 19.8813 20.5021 20.0835 20.5021H23.117C23.3192 20.5021 23.4832 20.3382 23.4832 20.1359V18.9854H24.6338C24.836 18.9854 25 18.8215 25 18.6192V4.96878C25 4.76653 24.836 4.60257 24.6338 4.60257ZM4.55024 19.7697H2.24922V18.9854H4.55024V19.7697ZM22.7508 19.7697H20.4498V18.9854H22.7508V19.7697Z" fill="black"/>
<path d="M20.7993 11.3623C21.0016 11.3623 21.1655 11.1984 21.1655 10.9961V8.76028C21.1655 8.55799 21.0016 8.39407 20.7993 8.39407H12.5C12.2978 8.39407 12.1338 8.55799 12.1338 8.76028V14.8272C12.1338 15.0295 12.2978 15.1934 12.5 15.1934H20.7993C21.0016 15.1934 21.1655 15.0295 21.1655 14.8272V12.5918C21.1655 12.3895 21.0016 12.2256 20.7993 12.2256C20.5971 12.2256 20.4331 12.3895 20.4331 12.5918V14.461H12.8662V9.1265H20.4331V10.9961C20.4331 11.1984 20.5971 11.3623 20.7993 11.3623Z" fill="black"/>
<path d="M14.775 9.91098H14.0167C13.8144 9.91098 13.6505 10.0749 13.6505 10.2772C13.6505 10.4795 13.8144 10.6434 14.0167 10.6434H14.775C14.9773 10.6434 15.1413 10.4795 15.1413 10.2772C15.1413 10.0749 14.9773 9.91098 14.775 9.91098Z" fill="black"/>
<path d="M14.775 11.4277H14.0167C13.8144 11.4277 13.6505 11.5916 13.6505 11.7939C13.6505 11.9962 13.8144 12.1601 14.0167 12.1601H14.775C14.9773 12.1601 15.1413 11.9962 15.1413 11.7939C15.1413 11.5916 14.9773 11.4277 14.775 11.4277Z" fill="black"/>
<path d="M14.775 12.9444H14.0167C13.8144 12.9444 13.6505 13.1083 13.6505 13.3106C13.6505 13.5129 13.8144 13.6768 14.0167 13.6768H14.775C14.9773 13.6768 15.1413 13.5129 15.1413 13.3106C15.1413 13.1083 14.9773 12.9444 14.775 12.9444Z" fill="black"/>
<path d="M17.041 9.91098H16.2827C16.0804 9.91098 15.9164 10.0749 15.9164 10.2772C15.9164 10.4795 16.0804 10.6434 16.2827 10.6434H17.041C17.2432 10.6434 17.4072 10.4795 17.4072 10.2772C17.4072 10.0749 17.2432 9.91098 17.041 9.91098Z" fill="black"/>
<path d="M17.041 11.4277H16.2827C16.0804 11.4277 15.9164 11.5916 15.9164 11.7939C15.9164 11.9962 16.0804 12.1601 16.2827 12.1601H17.041C17.2432 12.1601 17.4072 11.9962 17.4072 11.7939C17.4072 11.5916 17.2432 11.4277 17.041 11.4277Z" fill="black"/>
<path d="M17.041 12.9444H16.2827C16.0804 12.9444 15.9164 13.1083 15.9164 13.3106C15.9164 13.5129 16.0804 13.6768 16.2827 13.6768H17.041C17.2432 13.6768 17.4072 13.5129 17.4072 13.3106C17.4072 13.1083 17.2432 12.9444 17.041 12.9444Z" fill="black"/>
<path d="M19.307 9.91098H18.5486C18.3464 9.91098 18.1824 10.0749 18.1824 10.2772C18.1824 10.4795 18.3464 10.6434 18.5486 10.6434H19.307C19.5092 10.6434 19.6732 10.4795 19.6732 10.2772C19.6732 10.0749 19.5092 9.91098 19.307 9.91098Z" fill="black"/>
<path d="M19.307 11.4277H18.5486C18.3464 11.4277 18.1824 11.5916 18.1824 11.7939C18.1824 11.9962 18.3464 12.1601 18.5486 12.1601H19.307C19.5092 12.1601 19.6732 11.9962 19.6732 11.7939C19.6732 11.5916 19.5092 11.4277 19.307 11.4277Z" fill="black"/>
<path d="M19.307 12.9444H18.5486C18.3464 12.9444 18.1824 13.1083 18.1824 13.3106C18.1824 13.5129 18.3464 13.6768 18.5486 13.6768H19.307C19.5092 13.6768 19.6732 13.5129 19.6732 13.3106C19.6732 13.1083 19.5092 12.9444 19.307 12.9444Z" fill="black"/>
</svg>
