<svg width="25" height="26" viewBox="0 0 25 26" fill="none" xmlns="http://www.w3.org/2000/svg">
<path d="M19.7334 15.5848C19.7334 15.3826 19.8974 15.2186 20.0996 15.2186C20.3019 15.2186 20.4658 15.3826 20.4658 15.5848C20.4658 15.7871 20.3019 15.951 20.0996 15.951C19.8974 15.951 19.7334 15.7871 19.7334 15.5848Z" fill="black"/>
<path d="M23.9014 3.08481H7.04004C6.83779 3.08481 6.67383 3.24877 6.67383 3.45102C6.67383 3.65327 6.83779 3.81723 7.04004 3.81723H23.9014C24.1033 3.81723 24.2676 3.98149 24.2676 4.18344V17.8866C24.2676 18.0885 24.1033 18.2528 23.9014 18.2528H21.9825V17.4686H23.1172C23.3194 17.4686 23.4834 17.3046 23.4834 17.1024V11.0736C23.4834 10.8713 23.3194 10.7074 23.1172 10.7074C22.9149 10.7074 22.751 10.8713 22.751 11.0736V16.7362H21.9825V14.8003C21.9825 14.1945 21.4897 13.7017 20.8839 13.7017H19.3153C18.7095 13.7017 18.2167 14.1945 18.2167 14.8003V16.7362H2.24902V5.33383H22.751V9.47739C22.751 9.67963 22.9149 9.8436 23.1172 9.8436C23.3194 9.8436 23.4834 9.67963 23.4834 9.47739V4.96762C23.4834 4.76537 23.3194 4.60141 23.1172 4.60141H1.88281C1.68057 4.60141 1.5166 4.76537 1.5166 4.96762V17.1024C1.5166 17.3046 1.68057 17.4686 1.88281 17.4686H18.2167V18.2528H1.09863C0.896729 18.2528 0.732422 18.0885 0.732422 17.8866V4.18344C0.732422 3.98154 0.896729 3.81723 1.09863 3.81723H5.44434C5.64658 3.81723 5.81055 3.65327 5.81055 3.45102C5.81055 3.24877 5.64658 3.08481 5.44434 3.08481H1.09863C0.492822 3.08481 0 3.57763 0 4.18344V17.8866C0 18.4924 0.492822 18.9852 1.09863 18.9852H10.6171V19.7694H7.94971C7.74746 19.7694 7.5835 19.9333 7.5835 20.1356V21.6537C7.5835 21.8559 7.74746 22.0199 7.94971 22.0199H11.7021C11.9044 22.0199 12.0684 21.8559 12.0684 21.6537C12.0684 21.4514 11.9044 21.2874 11.7021 21.2874H8.31592V20.5018H16.6841V21.2874H13.2979C13.0956 21.2874 12.9316 21.4514 12.9316 21.6537C12.9316 21.8559 13.0956 22.0199 13.2979 22.0199H17.0503C17.2525 22.0199 17.4165 21.8559 17.4165 21.6537V20.1356C17.4165 19.9333 17.2525 19.7694 17.0503 19.7694H14.382V18.9852H18.2167V20.919C18.2167 21.5248 18.7095 22.0176 19.3153 22.0176H20.8839C21.4897 22.0176 21.9826 21.5248 21.9826 20.919V18.9852H23.9014C24.5072 18.9852 25 18.4924 25 17.8866V4.18344C25 3.57763 24.5072 3.08481 23.9014 3.08481ZM13.6495 18.9854V19.7692H11.3495V18.9854H13.6495ZM20.8839 21.2852H19.3153C19.1133 21.2852 18.9491 21.1209 18.9491 20.919V14.8003C18.9491 14.5984 19.1133 14.4341 19.3153 14.4341H20.8839C21.0858 14.4341 21.2501 14.5984 21.2501 14.8003V20.919C21.2501 21.1209 21.0858 21.2852 20.8839 21.2852Z" fill="black"/>
<path d="M20.4658 19.7685H19.7334C19.5312 19.7685 19.3672 19.9325 19.3672 20.1347C19.3672 20.337 19.5312 20.5009 19.7334 20.5009H20.4658C20.6681 20.5009 20.832 20.337 20.832 20.1347C20.832 19.9325 20.6681 19.7685 20.4658 19.7685Z" fill="black"/>
<path d="M20.4658 18.2517H19.7334C19.5312 18.2517 19.3672 18.4157 19.3672 18.618C19.3672 18.8202 19.5312 18.9842 19.7334 18.9842H20.4658C20.6681 18.9842 20.832 18.8202 20.832 18.618C20.832 18.4157 20.6681 18.2517 20.4658 18.2517Z" fill="black"/>
<path d="M20.4658 16.735H19.7334C19.5312 16.735 19.3672 16.899 19.3672 17.1013C19.3672 17.3035 19.5312 17.4675 19.7334 17.4675H20.4658C20.6681 17.4675 20.832 17.3035 20.832 17.1013C20.832 16.899 20.6681 16.735 20.4658 16.735Z" fill="black"/>
</svg>
