<svg width="25" height="26" viewBox="0 0 25 26" fill="none" xmlns="http://www.w3.org/2000/svg">
<g clip-path="url(#clip0_198_730)">
<path d="M9.87224 20.687H8.57892C7.69348 20.687 6.91955 21.3159 6.73864 22.1823L6.23185 24.6113C6.19055 24.8092 6.31755 25.0032 6.5155 25.0445C6.69914 25.0815 6.84357 24.987 6.94875 24.7608L7.45554 22.3319C7.56594 21.8031 8.03835 21.4193 8.57892 21.4193H9.87224C10.0745 21.4193 10.2384 21.2553 10.2384 21.0531C10.2384 20.8509 10.0745 20.687 9.87224 20.687Z" fill="black"/>
<path d="M22.9466 12.1849H21.7873C21.9908 7.72646 18.6373 3.72812 14.2085 3.15727V2.24174C14.6518 2.09096 14.9717 1.67055 14.9717 1.1768C14.9717 0.556781 14.4673 0.0523376 13.8473 0.0523376H12.3307C11.7107 0.0523376 11.2063 0.556781 11.2063 1.1768C11.2063 1.6687 11.5237 2.08779 11.9646 2.24003V3.158C7.53804 3.73129 4.18721 7.72831 4.39068 12.1849H3.23131C2.9252 12.2397 2.81597 12.4164 2.90377 12.7147L3.3209 13.5495C3.59424 14.0948 4.14283 14.4336 4.75264 14.4336H6.43736C5.24835 15.2602 4.35884 16.6872 3.92999 18.0632L1.6942 24.567C1.62842 24.7583 1.73018 24.9666 1.92144 25.0324C2.10797 25.0925 2.26304 25.0168 2.38677 24.8051L4.62437 18.296C5.23648 16.505 6.59258 14.4336 8.71265 14.4336C10.201 14.4336 10.9797 15.7175 11.0115 15.7711C11.0772 15.8835 11.1975 15.9525 11.3276 15.9525H13.6306C14.2756 15.9525 14.5563 17.1159 13.5547 17.1159H9.13331C8.93106 17.1159 8.76714 17.2799 8.76714 17.4821C8.76714 17.6843 8.93106 17.8482 9.13331 17.8482H13.5547C14.1252 17.8482 14.631 17.5589 14.8474 17.1267L20.4576 14.5306C20.7498 14.3957 21.1364 14.4237 21.3185 14.7393C21.4892 15.0338 21.3129 15.4127 21.0657 15.5893L14.5678 20.2397C14.1997 20.5065 13.743 20.6869 13.285 20.6869H11.4678C11.2655 20.6869 11.1016 20.8509 11.1016 21.0531C11.1016 21.2553 11.2655 21.4192 11.4678 21.4192H13.285C13.9037 21.4192 14.5125 21.2103 15.0002 20.8308L21.4788 16.1942C22.0254 15.8664 22.2796 14.9153 21.939 14.35C22.3322 14.2178 22.6636 13.9352 22.8571 13.549L23.2741 12.7146C23.3812 12.4559 23.3445 12.1849 22.9466 12.1849ZM12.6968 2.3062H13.4761V3.08544H12.6968V2.3062ZM12.3307 0.784711H13.8472C14.0634 0.784711 14.2393 0.960638 14.2393 1.1768C14.2393 1.39296 14.0634 1.56889 13.8472 1.56889H12.3307C12.1145 1.56889 11.9386 1.39296 11.9386 1.1768C11.9386 0.960638 12.1145 0.784711 12.3307 0.784711ZM13.6306 15.2202H11.5232C11.3868 15.0307 11.1357 14.7228 10.7695 14.4336H18.9233L14.9116 16.29C14.7837 15.6721 14.2618 15.2202 13.6306 15.2202ZM21.4253 13.7013H4.75264C4.29244 13.7013 3.95704 13.3227 3.82364 12.9172H12.2885C12.4908 12.9172 12.6547 12.7533 12.6547 12.5511C12.6547 12.3488 12.4908 12.1849 12.2885 12.1849H5.12379C4.90049 7.6958 8.59473 3.81806 13.0892 3.81806C17.5836 3.81806 21.2773 7.69604 21.0541 12.1849H13.8845C13.6823 12.1849 13.5184 12.3489 13.5184 12.5511C13.5184 12.7533 13.6823 12.9172 13.8845 12.9172H22.3543C22.0751 13.3835 21.9165 13.7013 21.4253 13.7013Z" fill="black"/>
</g>
<defs>
<clipPath id="clip0_198_730">
<rect width="25" height="25" fill="white" transform="translate(0 0.0523376)"/>
</clipPath>
</defs>
</svg>
